<svg width="330" height="330" viewBox="0 0 330 330" fill="none" xmlns="http://www.w3.org/2000/svg">
<g clip-path="url(#clip0_38_746)">
<path d="M256.112 291.706L260.448 273.585C268.884 270.934 277.767 270.641 286.326 272.73C272.422 280.615 269.773 301.851 258.921 314.415C255.509 318.305 251.364 321.28 246.792 323.122C242.22 324.964 237.338 325.624 232.508 325.054L221.321 329.377C221.643 320.562 223.66 311.931 227.232 304.078C230.804 296.225 235.846 289.337 242.011 283.888C245.497 280.87 249.306 278.357 253.35 276.41C254.327 283.998 256.112 291.706 256.112 291.706Z" fill="#F2F2F2"/>
<path d="M53.393 265.94L46.0744 235.356C31.8368 230.883 16.8439 230.388 2.39771 233.914C25.8651 247.221 30.3363 283.063 48.6517 304.269C54.4092 310.833 61.4055 315.855 69.1224 318.963C76.8393 322.072 85.0788 323.186 93.2303 322.223L112.111 329.52C111.567 314.643 108.164 300.076 102.135 286.822C96.1068 273.568 87.5966 261.942 77.191 252.746C71.3081 247.652 64.8784 243.411 58.0539 240.125C56.405 252.931 53.393 265.94 53.393 265.94Z" fill="#F2F2F2"/>
<path d="M242.391 78.408V28.7441C242.391 21.1207 239.7 13.8095 234.909 8.41895C230.119 3.02839 223.622 0 216.847 0H123.343C116.568 1.44037e-06 110.071 3.0284 105.281 8.41896C100.49 13.8095 97.7991 21.1207 97.7991 28.7441V301.204C97.7991 308.828 100.49 316.139 105.281 321.529C110.071 326.92 116.568 329.948 123.343 329.948H216.847C223.622 329.948 230.119 326.92 234.909 321.529C239.7 316.139 242.391 308.828 242.391 301.204V113.76C242.602 113.76 242.812 113.713 243.007 113.622C243.203 113.531 243.38 113.397 243.53 113.229C243.68 113.06 243.798 112.86 243.879 112.641C243.96 112.421 244.002 112.185 244.002 111.947V80.2209C244.002 79.7401 243.832 79.279 243.53 78.939C243.228 78.5991 242.818 78.4081 242.391 78.408Z" fill="#3F3D56"/>
<path d="M236.955 28.9414V301.008C236.955 306.659 234.974 312.082 231.442 316.099C227.909 320.116 223.111 322.403 218.09 322.462C218.02 322.47 217.95 322.473 217.881 322.471H123.921C118.863 322.471 114.012 320.209 110.435 316.184C106.858 312.159 104.848 306.7 104.848 301.008V28.9414C104.848 23.2491 106.858 17.7901 110.435 13.765C114.012 9.73992 118.863 7.47843 123.921 7.47791H135.324C134.763 9.02693 134.55 10.7072 134.702 12.371C134.854 14.0347 135.367 15.6309 136.196 17.0191C137.025 18.4073 138.144 19.545 139.456 20.332C140.767 21.119 142.231 21.5312 143.717 21.5324H197.285C198.77 21.5278 200.231 21.1132 201.541 20.3251C202.85 19.5369 203.968 18.3992 204.795 17.0118C205.623 15.6244 206.136 14.0296 206.288 12.3674C206.44 10.7052 206.228 9.02625 205.669 7.47791H217.881C222.939 7.47842 227.791 9.73992 231.367 13.765C234.944 17.7901 236.954 23.2491 236.955 28.9414Z" fill="white"/>
<path d="M98.3157 106.192C97.7393 106.191 97.1866 105.933 96.779 105.474C96.3713 105.016 96.142 104.394 96.1414 103.745V87.1068C96.1422 86.4585 96.3717 85.837 96.7794 85.379C97.187 84.9209 97.7396 84.6636 98.3157 84.6636C98.8919 84.6636 99.4444 84.9209 99.8521 85.379C100.26 85.837 100.489 86.4585 100.49 87.1068V103.745C100.489 104.394 100.26 105.016 99.8525 105.474C99.4449 105.933 98.8922 106.191 98.3157 106.192Z" fill="#3F3D56"/>
<path d="M97.8809 73.894C97.3045 73.8932 96.7518 73.6352 96.3442 73.1765C95.9365 72.7178 95.7072 72.0958 95.7065 71.4471V54.8088C95.7074 54.1605 95.9369 53.539 96.3446 53.081C96.7522 52.6229 97.3048 52.3656 97.8809 52.3656C98.457 52.3656 99.0096 52.6229 99.4173 53.081C99.825 53.539 100.054 54.1605 100.055 54.8088V71.4471C100.055 72.0958 99.8253 72.7178 99.4177 73.1765C99.0101 73.6352 98.4574 73.8932 97.8809 73.894Z" fill="#3F3D56"/>
<path d="M155.719 10.2767C155.72 9.62796 155.949 9.00604 156.357 8.54733C156.765 8.08863 157.317 7.8306 157.894 7.82983H172.68C173.256 7.8308 173.808 8.08902 174.215 8.54778C174.622 9.00654 174.851 9.62835 174.851 10.2767C174.851 10.925 174.622 11.5468 174.215 12.0055C173.808 12.4643 173.256 12.7225 172.68 12.7235H157.894C157.317 12.7227 156.765 12.4647 156.357 12.006C155.949 11.5473 155.72 10.9254 155.719 10.2767Z" fill="white"/>
<path d="M98.3157 134.575C97.7393 134.574 97.1866 134.316 96.779 133.858C96.3713 133.399 96.142 132.777 96.1414 132.128V115.49C96.1422 114.842 96.3717 114.22 96.7794 113.762C97.187 113.304 97.7396 113.047 98.3157 113.047C98.8919 113.047 99.4444 113.304 99.8521 113.762C100.26 114.22 100.489 114.842 100.49 115.49V132.128C100.489 132.777 100.26 133.399 99.8525 133.858C99.4449 134.316 98.8922 134.574 98.3157 134.575Z" fill="#3F3D56"/>
<path d="M180.942 12.7235C182.143 12.7235 183.117 11.628 183.117 10.2766C183.117 8.92531 182.143 7.82983 180.942 7.82983C179.742 7.82983 178.768 8.92531 178.768 10.2766C178.768 11.628 179.742 12.7235 180.942 12.7235Z" fill="white"/>
<path d="M160.692 311.92L166.545 311.919L169.328 286.519H160.691L160.692 311.92Z" fill="#9E616A"/>
<path d="M159.199 309.77L160.847 309.77L167.278 306.827L170.724 309.769C172.672 309.769 174.541 310.64 175.918 312.19C177.296 313.74 178.069 315.842 178.07 318.034V318.302L159.2 318.303L159.199 309.77Z" fill="#2F2E41"/>
<path d="M187.88 311.92L193.733 311.919L196.516 286.519H187.879L187.88 311.92Z" fill="#9E616A"/>
<path d="M186.388 309.77L188.035 309.77L194.466 306.827L197.913 309.769H197.913C199.861 309.769 201.729 310.64 203.107 312.19C204.484 313.74 205.258 315.842 205.258 318.034V318.302L186.388 318.303L186.388 309.77Z" fill="#2F2E41"/>
<path d="M192.558 172.914L146.578 174.264L147.378 199.459C147.378 199.459 146.578 206.208 148.178 208.008C149.777 209.807 150.577 209.807 149.777 212.957C148.977 216.106 153.202 221.25 152.689 221.828C152.176 222.405 150.976 225.554 150.976 225.554L154.975 251.2C154.975 251.2 157.773 295.742 158.573 296.642C159.373 297.542 160.172 296.642 159.373 298.891C158.573 301.141 157.773 300.241 158.573 301.141C159.281 302 159.949 302.902 160.572 303.841H170.239C170.239 303.841 170.968 299.341 170.968 298.891C170.968 298.441 171.767 295.742 171.767 295.292C171.767 294.842 171.061 294.047 171.061 294.047C170.816 293.132 170.651 292.193 170.568 291.243C170.568 290.343 168.169 255.699 168.169 255.699L172.967 210.707L184.562 254.799C184.562 254.799 184.562 293.492 185.361 294.392C186.161 295.292 186.161 294.842 185.761 296.642C185.361 298.441 183.762 297.992 184.962 299.341C186.161 300.691 186.561 298.441 186.161 300.691L185.761 302.941L197.756 303.134C197.756 303.134 199.355 299.341 198.556 297.992C197.756 296.642 197.804 297.01 198.779 294.801C199.755 292.593 200.155 292.143 199.755 291.693C199.355 291.243 199.355 288.85 199.355 288.85L197.356 245.801C197.356 245.801 196.956 200.359 196.956 199.009C196.926 198.315 197.04 197.622 197.288 196.985V195.153L195.757 188.661L192.558 172.914Z" fill="#2F2E41"/>
<path d="M156.586 82.5509C163.431 82.5509 168.98 76.3064 168.98 68.6034C168.98 60.9004 163.431 54.6559 156.586 54.6559C149.74 54.6559 144.191 60.9004 144.191 68.6034C144.191 76.3064 149.74 82.5509 156.586 82.5509Z" fill="#9E616A"/>
<path d="M150.954 78.0907L150.453 77.6383C150.443 77.6299 149.491 76.7797 148.582 76.9285C148.375 76.9672 148.177 77.055 148.002 77.1861C147.827 77.3172 147.679 77.4885 147.568 77.6887C147.504 77.7989 147.412 77.8852 147.305 77.9368C147.197 77.9883 147.079 78.0026 146.964 77.978C145.784 77.7691 143.655 73.8425 142.583 69.8985C141.921 67.4662 141.141 63.0589 143.289 60.7102C143.456 59.6468 145.169 50.0618 152.702 49.7955C160.452 49.5182 165.612 51.2792 166.856 54.6176C167.068 55.1856 167.282 55.8542 167.491 56.6046C167.598 56.9707 167.611 57.3633 167.528 57.7372C167.445 58.111 167.269 58.4507 167.022 58.7171C166.797 58.9628 166.522 59.1421 166.221 59.2387C165.92 59.3354 165.602 59.3465 165.296 59.271C165.258 59.6995 165.158 60.1182 165 60.5105C164.323 62.162 162.619 63.2397 160.659 63.2564C159.497 63.2373 158.348 62.9877 157.263 62.5192L160.399 65.2339L152.905 64.1849L155.36 65.6617L154.869 65.9245C153.342 66.6856 152.083 67.9942 151.288 69.646C150.493 71.2977 150.207 73.1994 150.474 75.0536L150.954 78.0907Z" fill="#2F2E41"/>
<path d="M190.3 166.247C192.044 162.858 190.383 157.962 190.383 157.962C190.383 157.962 194.895 150.455 193.788 147.253L188.475 100.924C188.475 100.924 186.814 95.9402 182.939 93.4484C181.876 92.7647 176.295 93.0333 175.071 93.0449L171.096 91.1324C170.865 92.0813 166.53 82.1912 166.507 83.1747C163.739 83.1747 161.957 83.6045 157.65 84.4206C150.172 85.8386 153.94 93.4417 154.413 94.3393C154.223 94.3532 154.033 94.3828 153.847 94.4278C152.872 94.6335 149.551 97.8665 149.551 97.8665L143.611 103.803C134.659 111.708 136.663 124.043 136.663 124.043L149.717 138.825L143.998 168.483C143.998 168.483 146.429 172.887 145.172 174.862C143.915 176.837 156.244 176.27 156.244 176.27C164.752 180.537 194.729 176.93 194.729 176.93C194.313 175.709 190.3 166.247 190.3 166.247Z" fill="#E6E6E6"/>
<path d="M0.574447 330H329.425C329.577 329.999 329.723 329.931 329.83 329.81C329.938 329.689 329.998 329.524 329.998 329.353C329.998 329.182 329.938 329.018 329.83 328.897C329.723 328.776 329.577 328.707 329.425 328.707H0.574447C0.422329 328.707 0.276602 328.776 0.169193 328.897C0.0617842 329.018 0.00146484 329.182 0.00146484 329.353C0.00146484 329.524 0.0617842 329.689 0.169193 329.81C0.276602 329.931 0.422329 329.999 0.574447 330Z" fill="#CACACA"/>
<path d="M216.268 315.83C216.268 318.649 216.189 321.444 216.031 324.215C215.962 324.225 215.893 324.228 215.824 324.226H121.867C117.616 324.226 113.486 322.628 110.134 319.686C106.782 316.745 104.399 312.627 103.363 307.988C103.181 307.178 103.044 306.356 102.953 305.528C102.846 304.611 102.793 303.688 102.793 302.763V181.518C110.023 181.92 117.205 183.062 124.251 184.928C124.941 185.108 125.626 185.298 126.307 185.493C126.35 185.504 126.394 185.52 126.437 185.531C127.127 185.727 127.813 185.933 128.493 186.145C143.018 190.634 156.653 198.189 168.672 208.406C169.362 208.987 170.047 209.585 170.727 210.188L170.858 210.302C171.997 211.312 173.118 212.347 174.222 213.408C174.468 213.642 174.714 213.881 174.955 214.125C175.549 214.701 176.143 215.287 176.722 215.879C189.538 228.861 199.712 244.804 206.548 262.618C206.775 263.199 206.992 263.785 207.209 264.372C207.296 264.611 207.383 264.85 207.47 265.089C207.552 265.306 207.629 265.523 207.706 265.741C213.38 281.667 216.286 298.671 216.268 315.83Z" fill="#3F3D56"/>
<path opacity="0.2" d="M172.914 303.773C172.913 298.693 173.802 293.662 175.53 288.969C177.257 284.275 179.789 280.01 182.981 276.418C186.174 272.825 189.964 269.976 194.135 268.032C198.306 266.088 202.777 265.088 207.291 265.089H207.47C207.383 264.85 207.296 264.611 207.209 264.372C206.992 263.785 206.775 263.199 206.548 262.618H172.914V214.125H174.955C174.714 213.881 174.468 213.642 174.222 213.408C173.117 212.349 171.995 211.314 170.858 210.302L170.728 210.188V211.654H128.493V186.145C127.813 185.933 127.127 185.727 126.437 185.531C126.394 185.52 126.35 185.504 126.307 185.493V211.654H104.85V214.125H126.307V262.618H104.85V265.089H126.307V303.773H105.009C105.1 304.602 105.237 305.424 105.419 306.234H126.307V322.472H128.493V306.234H170.728V322.472H172.914V306.234H209.762V303.773H172.914ZM170.728 303.773H128.493V265.089H170.728V303.773ZM170.728 262.618H128.493V261.651C128.493 249.046 132.943 236.958 140.864 228.045C148.784 219.132 159.526 214.125 170.728 214.125V262.618Z" fill="black"/>
<path d="M147.531 199.25C147.096 198.701 146.774 198.052 146.587 197.349C146.4 196.645 146.352 195.904 146.447 195.177C146.543 194.45 146.778 193.756 147.137 193.143C147.497 192.529 147.971 192.012 148.527 191.628L142.896 166.717L150.595 170.037L154.874 193.56C155.386 194.654 155.523 195.922 155.261 197.123C154.998 198.323 154.353 199.374 153.448 200.075C152.543 200.776 151.44 201.08 150.35 200.928C149.259 200.775 148.256 200.178 147.531 199.25Z" fill="#9E616A"/>
<path d="M137.167 119.305L136.472 129.253C136.472 129.253 135.607 140.181 135.833 142.202C136.06 144.223 136.481 156.564 136.481 156.564L143.81 172.878L152.114 170.387L151.617 162.734L152.114 169.764L153.221 163.534L150.453 152.944L152.114 149.207L151.276 136.66L137.167 119.305Z" fill="#E6E6E6"/>
<path d="M328.116 186.425C327.138 185.12 325.751 184.289 324.243 184.104C324.028 184.078 323.813 184.065 323.597 184.065L212.301 183.948C211.495 183.945 210.698 184.128 209.957 184.485C209.217 184.843 208.55 185.367 207.997 186.026C206.931 187.33 206.349 189.042 206.369 190.813L206.353 211.158C206.344 214.844 207.054 218.487 208.432 221.831C207.663 225.113 206.377 228.212 204.637 230.983C204.095 231.861 203.784 232.893 203.741 233.961C203.697 235.029 203.922 236.088 204.389 237.019C204.857 237.949 205.548 238.712 206.384 239.22C207.22 239.728 208.166 239.96 209.114 239.89C210.287 239.808 211.455 239.659 212.615 239.442C215.989 238.847 219.209 237.436 222.051 235.306C224.238 236.08 226.517 236.475 228.81 236.476L307.069 236.558C310.021 236.57 312.945 235.922 315.672 234.651C318.399 233.38 320.874 231.511 322.953 229.154C327.189 224.287 329.543 217.733 329.501 210.921L329.517 190.951C329.542 189.303 329.045 187.699 328.116 186.425Z" fill="#490AAC"/>
<path d="M299.036 202.41L236.831 202.344C236.654 202.344 236.478 202.305 236.314 202.228C236.149 202.151 236 202.039 235.875 201.897C235.749 201.756 235.65 201.588 235.582 201.403C235.514 201.218 235.479 201.02 235.479 200.82C235.479 200.62 235.515 200.422 235.583 200.237C235.651 200.053 235.751 199.885 235.877 199.743C236.002 199.602 236.152 199.49 236.316 199.414C236.48 199.337 236.656 199.298 236.834 199.298L299.039 199.364C299.398 199.364 299.742 199.525 299.995 199.811C300.249 200.097 300.391 200.484 300.391 200.888C300.391 201.292 300.248 201.679 299.994 201.965C299.74 202.25 299.395 202.41 299.036 202.41Z" fill="white"/>
<path d="M299.028 211.758L236.824 211.693C236.646 211.693 236.47 211.653 236.306 211.576C236.142 211.5 235.993 211.387 235.867 211.246C235.741 211.104 235.642 210.936 235.574 210.751C235.506 210.566 235.471 210.368 235.471 210.168C235.472 209.968 235.507 209.77 235.575 209.586C235.643 209.401 235.743 209.233 235.869 209.092C235.995 208.951 236.144 208.838 236.308 208.762C236.472 208.686 236.648 208.647 236.826 208.647L299.031 208.712C299.39 208.712 299.734 208.873 299.988 209.159C300.241 209.445 300.383 209.833 300.383 210.237C300.383 210.64 300.24 211.028 299.986 211.313C299.732 211.598 299.387 211.758 299.028 211.758Z" fill="white"/>
<path d="M244.065 221.049L236.816 221.041C236.638 221.041 236.462 221.001 236.298 220.925C236.134 220.848 235.985 220.736 235.859 220.594C235.734 220.452 235.634 220.284 235.566 220.1C235.499 219.915 235.464 219.717 235.464 219.517C235.464 219.317 235.499 219.119 235.567 218.934C235.636 218.749 235.735 218.581 235.861 218.44C235.987 218.299 236.136 218.187 236.301 218.11C236.465 218.034 236.641 217.995 236.819 217.995L244.068 218.003C244.426 218.004 244.77 218.165 245.023 218.451C245.276 218.736 245.418 219.124 245.418 219.527C245.417 219.931 245.275 220.317 245.021 220.603C244.767 220.888 244.424 221.048 244.065 221.049Z" fill="white"/>
<path d="M1.54474 107.677C2.52262 106.372 3.90961 105.541 5.41772 105.356C5.63215 105.33 5.84767 105.317 6.06335 105.316L117.359 105.2C118.165 105.196 118.963 105.379 119.703 105.737C120.443 106.094 121.111 106.619 121.664 107.278C122.729 108.581 123.312 110.294 123.291 112.065L123.308 132.409C123.317 136.095 122.607 139.739 121.229 143.083C121.998 146.364 123.283 149.464 125.024 152.235C125.566 153.113 125.876 154.145 125.92 155.213C125.963 156.28 125.739 157.34 125.271 158.27C124.803 159.2 124.112 159.963 123.276 160.471C122.441 160.979 121.495 161.212 120.547 161.141C119.374 161.06 118.205 160.91 117.046 160.693C113.672 160.099 110.452 158.687 107.609 156.557C105.422 157.332 103.143 157.726 100.851 157.728L22.5911 157.81C19.6396 157.822 16.7154 157.174 13.9886 155.902C11.2618 154.631 8.78677 152.763 6.70756 150.405C2.47107 145.539 0.11723 138.984 0.159808 132.172L0.143209 112.202C0.11856 110.555 0.615318 108.95 1.54474 107.677Z" fill="#490AAC"/>
<path d="M29.2698 122.14C29.2699 121.736 29.4123 121.349 29.6658 121.063C29.9193 120.777 30.2631 120.616 30.622 120.615L92.8268 120.55C93.1857 120.549 93.5301 120.71 93.7842 120.995C94.0382 121.28 94.1811 121.667 94.1815 122.071C94.1818 122.475 94.0395 122.863 93.7859 123.149C93.5324 123.435 93.1883 123.595 92.8293 123.596L30.6245 123.661C30.2657 123.661 29.9215 123.501 29.6676 123.216C29.4136 122.93 29.2705 122.543 29.2698 122.14Z" fill="white"/>
<path d="M29.2773 131.488C29.2774 131.084 29.4198 130.697 29.6733 130.411C29.9268 130.126 30.2707 129.965 30.6295 129.964L92.8343 129.898C93.1933 129.898 93.5377 130.058 93.7917 130.343C94.0458 130.629 94.1887 131.016 94.189 131.42C94.1894 131.824 94.0471 132.211 93.7935 132.497C93.5399 132.783 93.1958 132.944 92.8369 132.944L30.632 133.01C30.2732 133.01 29.9291 132.849 29.6751 132.564C29.4212 132.279 29.2781 131.892 29.2773 131.488Z" fill="white"/>
<path d="M84.241 140.779C84.2411 140.375 84.3835 139.988 84.637 139.702C84.8904 139.416 85.2343 139.255 85.5931 139.254L92.8422 139.247C93.2012 139.246 93.5455 139.406 93.7996 139.692C94.0537 139.977 94.1966 140.364 94.1969 140.768C94.1972 141.172 94.055 141.56 93.8014 141.846C93.5478 142.131 93.2037 142.292 92.8447 142.293L85.5957 142.3C85.2368 142.3 84.8927 142.14 84.6388 141.855C84.3848 141.569 84.2417 141.182 84.241 140.779Z" fill="white"/>
<path d="M225.71 60.5869C225.089 60.9364 224.545 61.4347 224.114 62.0466C223.684 62.6586 223.378 63.3693 223.218 64.1287C223.058 64.8882 223.048 65.6779 223.188 66.4422C223.329 67.2065 223.617 67.9268 224.031 68.5524L214.568 84.2543L223.329 84.382L230.972 69.4516C231.86 68.598 232.438 67.4076 232.598 66.1059C232.758 64.8042 232.488 63.4817 231.84 62.389C231.191 61.2964 230.209 60.5094 229.079 60.1772C227.949 59.8451 226.75 59.9908 225.71 60.5869Z" fill="#9E616A"/>
<path d="M228.715 75.3942L214.136 105.559L214.006 105.569C213.9 105.577 209.261 105.923 203.596 106.269C202.641 106.327 202.078 108.234 201.081 108.291C200.394 108.33 197.859 111.915 197.166 111.952C190.991 112.282 187.45 115.458 185.1 115.211C181.916 114.912 177.674 105.054 175.36 102.574L175.306 102.509L175.298 102.42C175.136 100.611 175.527 98.7943 176.405 97.2688C177.284 95.7432 178.599 94.6002 180.133 94.0282C187.551 91.3112 195.428 90.5714 203.143 91.8673L207.531 92.6101L220.851 72.4789L228.715 75.3942Z" fill="#E6E6E6"/>
<path d="M307.363 16.9802C306.385 15.6752 304.998 14.8441 303.49 14.6596C303.276 14.6334 303.06 14.6202 302.844 14.62L191.548 14.5031C190.743 14.4999 189.945 14.6827 189.205 15.0402C188.464 15.3977 187.797 15.9223 187.244 16.5816C186.178 17.8848 185.596 19.5974 185.617 21.3682L185.6 41.7128C185.591 45.399 186.301 49.0424 187.679 52.3865C186.91 55.6678 185.625 58.7674 183.884 61.5384C183.342 62.4164 183.032 63.4485 182.988 64.5161C182.944 65.5837 183.169 66.6436 183.637 67.5738C184.104 68.5041 184.796 69.267 185.631 69.7749C186.467 70.2828 187.413 70.5151 188.361 70.445C189.534 70.3635 190.702 70.2139 191.862 69.9969C195.236 69.4023 198.456 67.9911 201.299 65.8607C203.485 66.6352 205.764 67.0299 208.057 67.0312L286.317 67.1134C289.268 67.1255 292.192 66.4772 294.919 65.206C297.646 63.9349 300.121 62.0662 302.2 59.7089C306.437 54.8426 308.791 48.2881 308.748 41.4759L308.765 21.506C308.789 19.8581 308.292 18.254 307.363 16.9802Z" fill="#490AAC"/>
<path d="M278.284 32.9648L216.079 32.8994C215.901 32.8992 215.725 32.8597 215.561 32.7829C215.397 32.7062 215.248 32.5939 215.122 32.4523C214.997 32.3108 214.897 32.1428 214.829 31.9579C214.761 31.7731 214.726 31.575 214.727 31.375C214.727 31.175 214.762 30.977 214.83 30.7923C214.898 30.6076 214.998 30.4398 215.124 30.2985C215.25 30.1572 215.399 30.0451 215.563 29.9688C215.727 29.8924 215.904 29.8532 216.081 29.8534L278.286 29.9187C278.645 29.9191 278.989 30.0799 279.243 30.3658C279.496 30.6517 279.639 31.0393 279.638 31.4432C279.638 31.8471 279.495 32.2343 279.241 32.5197C278.987 32.8051 278.643 32.9652 278.284 32.9648Z" fill="white"/>
<path d="M278.276 42.3133L216.071 42.2479C215.712 42.2476 215.368 42.0867 215.114 41.8009C214.861 41.515 214.718 41.1274 214.719 40.7235C214.719 40.3196 214.862 39.9323 215.116 39.647C215.37 39.3616 215.714 39.2015 216.073 39.2019L278.278 39.2673C278.637 39.2676 278.981 39.4285 279.235 39.7143C279.489 40.0002 279.631 40.3878 279.63 40.7917C279.63 41.1956 279.487 41.5829 279.233 41.8682C278.979 42.1536 278.635 42.3137 278.276 42.3133Z" fill="white"/>
<path d="M223.312 51.6038L216.063 51.5962C215.885 51.596 215.709 51.5564 215.545 51.4797C215.381 51.403 215.232 51.2907 215.106 51.1491C214.981 51.0076 214.881 50.8396 214.813 50.6547C214.746 50.4699 214.711 50.2718 214.711 50.0718C214.711 49.8718 214.746 49.6738 214.814 49.489C214.883 49.3043 214.982 49.1365 215.108 48.9953C215.234 48.854 215.383 48.7419 215.548 48.6656C215.712 48.5892 215.888 48.55 216.066 48.5502L223.315 48.5578C223.673 48.5588 224.017 48.7199 224.27 49.0057C224.523 49.2916 224.665 49.6787 224.665 50.0822C224.664 50.4857 224.522 50.8726 224.268 51.1579C224.015 51.4431 223.671 51.6035 223.312 51.6038Z" fill="white"/>
</g>
<defs>
<clipPath id="clip0_38_746">
<rect width="330" height="330" fill="white"/>
</clipPath>
</defs>
</svg>
