<svg width="31" height="31" viewBox="0 0 31 31" fill="none" xmlns="http://www.w3.org/2000/svg">
<g filter="url(#filter0_d_101_246)">
<path d="M22.4791 12.3L16.4374 11.2L14.4062 5.59998L12.427 6.24998L14.4583 11.8L10.3958 16.3L11.9583 17.6L16.0208 13.1L22.0624 14.2L22.4791 12.3Z" fill="#1E5BC6"/>
<path d="M15.4999 9.5C14.0416 9.5 12.8958 10.6 12.8958 12C12.8958 13.4 14.0416 14.5 15.4999 14.5C16.9583 14.5 18.1041 13.4 18.1041 12C18.1041 10.6 16.9583 9.5 15.4999 9.5ZM15.4999 13C14.927 13 14.4583 12.55 14.4583 12C14.4583 11.45 14.927 11 15.4999 11C16.0728 11 16.5416 11.45 16.5416 12C16.5416 12.55 16.0728 13 15.4999 13Z" fill="#1E5BC6"/>
<path d="M24.1979 13.5C24.302 13 24.3541 12.5 24.3541 12C24.3541 11.5 24.302 11 24.1979 10.5L25.9166 9.3C26.125 9.15 26.2291 8.85 26.0729 8.6L23.8333 4.9C23.677 4.65 23.4166 4.55 23.1562 4.7L21.2291 5.5C20.4479 4.85 19.5104 4.35 18.5208 4L18.3125 1.95C18.2604 1.7 18.052 1.5 17.7916 1.5H13.3125C13.052 1.5 12.7916 1.7 12.7916 1.95L12.4791 4C11.4895 4.35 10.552 4.85 9.77079 5.5L7.8437 4.65C7.58329 4.55 7.27079 4.65 7.16662 4.9L4.92704 8.6C4.77079 8.85 4.87495 9.15 5.08329 9.3L6.80204 10.5C6.69787 11 6.64579 11.5 6.64579 12C6.64579 12.5 6.69787 13 6.80204 13.5L5.08329 14.7C4.87495 14.85 4.77079 15.15 4.92704 15.4L7.16662 19.1C7.32287 19.35 7.58329 19.45 7.8437 19.3L9.77079 18.5C10.552 19.15 11.4895 19.65 12.4791 20L12.6875 22.05C12.7395 22.3 12.9479 22.5 13.2083 22.5H17.6875C17.9479 22.5 18.2083 22.3 18.2083 22.05L18.4166 20C19.4062 19.65 20.3437 19.15 21.125 18.5L23.052 19.35C23.3125 19.45 23.625 19.35 23.7291 19.15L25.9687 15.45C26.125 15.2 26.0208 14.9 25.8125 14.75L24.1979 13.5ZM15.5 17.5C12.3229 17.5 9.77079 15.05 9.77079 12C9.77079 8.95 12.3229 6.5 15.5 6.5C18.677 6.5 21.2291 8.95 21.2291 12C21.2291 15.05 18.677 17.5 15.5 17.5Z" fill="#1E5BC6"/>
</g>
<defs>
<filter id="filter0_d_101_246" x="-1" y="0" width="33" height="32" filterUnits="userSpaceOnUse" color-interpolation-filters="sRGB">
<feFlood flood-opacity="0" result="BackgroundImageFix"/>
<feColorMatrix in="SourceAlpha" type="matrix" values="0 0 0 0 0 0 0 0 0 0 0 0 0 0 0 0 0 0 127 0" result="hardAlpha"/>
<feOffset dy="4"/>
<feGaussianBlur stdDeviation="2"/>
<feComposite in2="hardAlpha" operator="out"/>
<feColorMatrix type="matrix" values="0 0 0 0 0 0 0 0 0 0 0 0 0 0 0 0 0 0 0.25 0"/>
<feBlend mode="normal" in2="BackgroundImageFix" result="effect1_dropShadow_101_246"/>
<feBlend mode="normal" in="SourceGraphic" in2="effect1_dropShadow_101_246" result="shape"/>
</filter>
</defs>
</svg>
