<svg width="24" height="24" viewBox="0 0 24 24" fill="none" xmlns="http://www.w3.org/2000/svg">
<path fill-rule="evenodd" clip-rule="evenodd" d="M12.9549 3.69593L20.6264 11.3635C20.8667 11.6038 20.9997 11.9234 20.9997 12.2609C21.0004 12.4279 20.9679 12.5934 20.9042 12.7478C20.8404 12.9022 20.7467 13.0424 20.6284 13.1603C20.3882 13.4005 20.0685 13.5336 19.729 13.5336H18.8674V20H13.1117V18.5705V14.5203H10.8881V18.5705V20H5.1324V13.5336H4.2886C3.58975 13.5336 3.00802 12.9757 3.00008 12.2768C2.99815 12.1074 3.03019 11.9393 3.09429 11.7824C3.1584 11.6255 3.25328 11.4831 3.37334 11.3635L7.46623 7.27262L11.5591 3.18171C11.6763 3.06532 11.8347 3 11.9999 3C12.165 3 12.3235 3.06532 12.4406 3.18171L12.9549 3.69593ZM17.4379 18.5705V12.1041H19.3459L12.4605 5.2227L12.0019 4.76407L4.6559 12.1041H6.56188V18.5705H9.61741V14.0438C9.61741 13.605 9.9728 13.2497 10.4116 13.2497H13.5882C14.027 13.2497 14.3824 13.605 14.3824 14.0438V18.5705H17.4379Z" fill="#1E5BC6"/>
<path d="M17.4379 12.1041V18.5705H14.3824V14.0438C14.3824 13.605 14.027 13.2497 13.5882 13.2497H10.4116C9.9728 13.2497 9.61741 13.605 9.61741 14.0438V18.5705H6.56188V12.1041H4.6559L12.0019 4.76407L12.4605 5.2227L19.3459 12.1041H17.4379Z" fill="#1E5BC6"/>
</svg>
