<svg width="19" height="18" viewBox="0 0 19 18" fill="none" xmlns="http://www.w3.org/2000/svg">
<path d="M7.91602 3.00001C7.91602 3.39398 7.83842 3.78409 7.68765 4.14806C7.53689 4.51204 7.31591 4.84276 7.03734 5.12133C6.75876 5.39991 6.42804 5.62089 6.06407 5.77165C5.70009 5.92241 5.30998 6.00001 4.91602 6.00001C4.52205 6.00001 4.13194 5.92241 3.76797 5.77165C3.40399 5.62089 3.07327 5.39991 2.7947 5.12133C2.51612 4.84276 2.29514 4.51204 2.14438 4.14806C1.99361 3.78409 1.91602 3.39398 1.91602 3.00001C1.91602 2.20436 2.23209 1.4413 2.7947 0.878692C3.3573 0.316082 4.12037 1.18338e-05 4.91602 1.18338e-05C5.71167 1.18338e-05 6.47473 0.316082 7.03734 0.878692C7.59995 1.4413 7.91602 2.20436 7.91602 3.00001ZM2.16602 7.00001C1.70189 7.00001 1.25677 7.18439 0.928579 7.51257C0.60039 7.84076 0.416016 8.28588 0.416016 8.75001V13.5C0.416016 14.091 0.532412 14.6761 0.758558 15.2221C0.984704 15.7681 1.31617 16.2641 1.73404 16.682C2.1519 17.0999 2.64797 17.4313 3.19394 17.6575C3.73991 17.8836 4.32507 18 4.91602 18C5.50696 18 6.09213 17.8836 6.63809 17.6575C7.18406 17.4313 7.68013 17.0999 8.098 16.682C8.51586 16.2641 8.84733 15.7681 9.07347 15.2221C9.29962 14.6761 9.41602 14.091 9.41602 13.5V8.75001C9.41602 8.28588 9.23164 7.84076 8.90345 7.51257C8.57526 7.18439 8.13015 7.00001 7.66602 7.00001H2.16602ZM8.27602 17.854C8.94244 17.3407 9.48201 16.6812 9.85306 15.9262C10.2241 15.1713 10.4167 14.3412 10.416 13.5V8.75001C10.416 8.08501 10.18 7.47601 9.78702 7.00001H12.166C13.132 7.00001 13.916 7.78401 13.916 8.75001V13.5C13.9161 14.1882 13.7584 14.8672 13.455 15.4848C13.1516 16.1025 12.7106 16.6423 12.1659 17.0629C11.6212 17.4834 10.9872 17.7734 10.3129 17.9105C9.63854 18.0477 8.94172 18.0283 8.27602 17.854ZM8.91602 3.00001C8.91602 4.00001 8.54902 4.91301 7.94302 5.61401C8.39951 5.87088 8.91529 6.00375 9.43908 5.99941C9.96286 5.99507 10.4764 5.85366 10.9285 5.58926C11.3807 5.32485 11.7558 4.94667 12.0164 4.49233C12.2771 4.03798 12.4142 3.52331 12.4142 2.99951C12.4142 2.47571 12.2771 1.96104 12.0164 1.5067C11.7558 1.05235 11.3807 0.67417 10.9285 0.409767C10.4764 0.145364 9.96286 0.00395786 9.43908 -0.000385133C8.91529 -0.00472813 8.39951 0.128143 7.94302 0.385012C8.54902 1.08701 8.91602 2.00101 8.91602 3.00001ZM12.776 17.854C13.4424 17.3407 13.982 16.6812 14.3531 15.9262C14.7241 15.1713 14.9167 14.3412 14.916 13.5V8.75001C14.916 8.08501 14.68 7.47601 14.287 7.00001H16.666C17.632 7.00001 18.416 7.78401 18.416 8.75001V13.5C18.4161 14.1882 18.2584 14.8672 17.955 15.4848C17.6516 16.1025 17.2106 16.6423 16.6659 17.0629C16.1212 17.4834 15.4872 17.7734 14.8129 17.9105C14.1385 18.0477 13.4417 18.0283 12.776 17.854ZM13.416 3.00001C13.416 4.00001 13.049 4.91301 12.443 5.61401C12.8995 5.87088 13.4153 6.00375 13.9391 5.99941C14.4629 5.99507 14.9764 5.85366 15.4285 5.58926C15.8807 5.32485 16.2558 4.94667 16.5164 4.49233C16.7771 4.03798 16.9142 3.52331 16.9142 2.99951C16.9142 2.47571 16.7771 1.96104 16.5164 1.5067C16.2558 1.05235 15.8807 0.67417 15.4285 0.409767C14.9764 0.145364 14.4629 0.00395786 13.9391 -0.000385133C13.4153 -0.00472813 12.8995 0.128143 12.443 0.385012C13.049 1.08701 13.416 2.00101 13.416 3.00001Z" fill="#1E5BC6"/>
</svg>
