<svg width="248" height="180" viewBox="0 0 248 180" fill="none" xmlns="http://www.w3.org/2000/svg">
<g clip-path="url(#clip0_21_175)">
<path d="M133.215 123.503C122.015 116.8 118.373 102.262 125.077 91.0621L170.539 15.1724C177.242 3.97243 191.78 0.331047 202.98 7.0345C214.18 13.7379 217.822 28.2759 211.118 39.4759L165.656 115.366C158.953 126.566 144.415 130.207 133.215 123.503Z" fill="#001D54"/>
<path fill-rule="evenodd" clip-rule="evenodd" d="M133.352 1.07593L106.649 1.37937C117.683 3.36558 126.07 13.0208 126.07 24.6345C126.07 37.6828 115.477 48.2759 102.428 48.2759C94.4007 48.2759 87.2835 44.2759 83.0352 38.1518L81.38 35.3656L68.3318 13.5725C63.8904 6.17937 56.0835 2.06903 48.0283 2.06903C43.8904 2.06903 39.7249 3.14489 35.918 5.43455C30.1525 8.88282 26.3731 14.4277 24.9938 20.5242C24.9938 20.5794 24.9662 20.607 24.9662 20.6621C23.7249 26.3449 24.5525 32.4966 27.78 37.8759L57.7938 88.0277C58.1525 88.6346 58.5111 89.1863 58.9249 89.738L71.2559 110.869C80.718 127.062 104.083 127.117 113.628 110.979L155.752 39.807C165.904 22.6759 153.518 1.04834 133.683 1.04834C133.573 1.04834 133.463 1.04834 133.352 1.04834V1.07593Z" fill="#00D7FA"/>
<path d="M125.959 24.607C125.959 37.6552 115.366 48.2483 102.318 48.2483C89.2696 48.2483 78.6765 37.6552 78.6765 24.607C78.6765 11.5587 89.2696 0.965576 102.318 0.965576C115.366 0.965576 125.959 11.5587 125.959 24.607Z" fill="#001D54"/>
<path d="M133.215 123.503C122.015 116.8 118.373 102.262 125.077 91.0621L170.539 15.1724C177.242 3.97243 191.78 0.331047 202.98 7.0345C214.18 13.7379 217.822 28.2759 211.118 39.4759L165.656 115.366C158.953 126.566 144.415 130.207 133.215 123.503V123.503Z" stroke="white" stroke-width="1.93103" stroke-miterlimit="10"/>
<path d="M133.352 1.07588L106.649 1.37933C117.683 3.36554 126.07 13.0207 126.07 24.6345C126.07 37.6828 115.477 48.2759 102.428 48.2759C94.4007 48.2759 87.2835 44.2759 83.0352 38.1517L81.38 35.3655L68.3318 13.5724C63.8904 6.17933 56.0835 2.06899 48.0283 2.06899C43.8904 2.06899 39.7249 3.14485 35.918 5.4345C30.1525 8.88278 26.3731 14.4276 24.9938 20.5242C24.9938 20.5517 24.9662 20.6069 24.9662 20.6621C23.7249 26.3448 24.5525 32.4966 27.78 37.8759L57.7938 88.0276C58.1525 88.6345 58.5111 89.1862 58.9249 89.7379L71.2835 110.869C80.7456 127.062 104.111 127.117 113.656 110.979L155.78 39.8069C165.987 22.5655 153.408 0.827608 133.38 1.0483L133.352 1.07588Z" stroke="white" stroke-width="1.93103" stroke-miterlimit="10"/>
<path d="M125.959 24.607C125.959 37.6552 115.366 48.2483 102.318 48.2483C89.2696 48.2483 78.6765 37.6552 78.6765 24.607C78.6765 11.5587 89.2696 0.965576 102.318 0.965576C115.366 0.965576 125.959 11.5587 125.959 24.607V24.607Z" stroke="white" stroke-width="1.93103" stroke-miterlimit="10"/>
<path d="M19.6421 154.179L17.1593 153.628C15.6697 153.297 14.649 152.966 14.0973 152.579C13.5731 152.193 13.2973 151.724 13.2973 151.145C13.2973 150.29 13.7662 149.655 14.7318 149.269C15.6973 148.855 17.049 148.662 18.8145 148.662C19.6697 148.662 20.6076 148.745 21.6559 148.91C22.7042 149.076 23.7249 149.269 24.7456 149.517C25.7662 149.766 26.7042 150.014 27.5593 150.317C28.4145 150.621 29.049 150.897 29.4904 151.145C30.18 150.566 30.7593 149.821 31.2283 148.938C31.6697 148.055 31.918 147.007 31.918 145.766C31.918 144.469 31.5318 143.366 30.7869 142.428C30.0421 141.49 29.0214 140.717 27.7249 140.138C26.4559 139.559 24.9387 139.117 23.2007 138.814C21.4628 138.51 19.6145 138.373 17.6283 138.373C15.0076 138.373 12.6076 138.676 10.4559 139.255C8.30418 139.835 6.42832 140.662 4.88349 141.738C3.33866 142.814 2.12487 144.138 1.2697 145.738C0.414524 147.338 -0.0268555 149.131 -0.0268555 151.117C-0.0268555 154.759 1.10418 157.545 3.39383 159.504C5.6559 161.462 9.13177 162.897 13.7938 163.807L16.1938 164.276C17.6835 164.552 18.7594 164.883 19.3938 165.324C20.0283 165.738 20.3594 166.345 20.3594 167.09C20.3594 167.89 19.918 168.524 19.0352 169.021C18.1525 169.49 16.8835 169.738 15.2283 169.738C12.6076 169.738 10.2904 169.407 8.27659 168.745C6.2628 168.083 4.49728 167.31 2.95245 166.455C2.20763 167.035 1.57314 167.779 1.02142 168.662C0.497282 169.545 0.22142 170.621 0.22142 171.917C0.22142 173.297 0.607627 174.51 1.38004 175.531C2.15245 176.552 3.22832 177.379 4.58004 178.069C5.93176 178.731 7.58694 179.228 9.51797 179.559C11.449 179.89 13.518 180.028 15.78 180.028C21.7111 180.028 26.2076 178.869 29.2697 176.579C32.3318 174.29 33.849 171.09 33.849 167.035C33.849 163.779 32.7731 161.104 30.5938 159.062C28.4421 156.993 24.7731 155.393 19.6421 154.207V154.179Z" fill="white"/>
<path d="M68.7731 138.538H61.7662C59.9731 138.483 59.0903 139.366 59.1455 141.159V161.655C59.1455 163.117 58.5386 164.414 57.2972 165.545C56.1938 166.538 54.8972 167.035 53.4076 167.035C51.8352 167.035 50.4834 166.483 49.3248 165.352C48.1662 164.221 47.6145 162.869 47.6145 161.269V141.186C47.6697 139.393 46.7869 138.51 44.9938 138.566H38.0697C36.2766 138.51 35.3938 139.393 35.449 141.186V161.435C35.449 166.731 36.8283 170.924 39.6145 174.014C42.7593 177.545 47.3386 179.31 53.2972 179.31C56.5524 179.31 59.2834 178.648 61.4903 177.324C61.6007 178.428 62.2352 178.952 63.449 178.924H68.8283C70.6214 178.979 71.5041 178.097 71.449 176.304V141.214C71.5041 139.421 70.6214 138.538 68.8283 138.593L68.7731 138.538Z" fill="white"/>
<path d="M99.4764 164.745C97.8488 166.373 95.835 167.173 93.435 167.173C91.0902 167.173 89.104 166.345 87.4764 164.717C85.8212 163.062 85.0212 161.021 85.0212 158.593C85.0212 156.166 85.8488 154.124 87.4764 152.497C89.104 150.841 91.0626 150.041 93.3798 150.041C95.8074 150.041 97.8212 150.841 99.4488 152.469C101.104 154.152 101.904 156.193 101.904 158.621C101.904 161.076 101.076 163.117 99.4488 164.773L99.4764 164.745ZM111.587 138.538H104.966C103.697 138.51 103.007 139.062 102.925 140.221C99.9178 138.676 96.773 137.904 93.4902 137.904C87.7798 137.904 82.8971 139.945 78.8695 144.028C74.8419 148.083 72.8281 152.938 72.8281 158.593C72.8281 164.248 74.8419 169.131 78.8695 173.159C82.8971 177.241 87.7523 179.255 93.435 179.255C97.0488 179.255 100.497 178.317 103.78 176.469V176.745C103.807 178.345 104.69 179.09 106.401 179.007H111.559C113.325 179.062 114.207 178.179 114.18 176.386V141.131C114.235 139.338 113.352 138.455 111.559 138.51L111.587 138.538Z" fill="white"/>
<path d="M155.918 139.228H147.78C146.235 139.2 145.27 139.917 144.883 141.379L140.056 157.986L135.145 141.379C134.732 139.917 133.766 139.2 132.249 139.228H124.194C122.814 139.228 122.125 139.752 122.125 140.8C122.125 141.076 122.208 141.407 122.373 141.821L134.676 177.241C135.145 178.676 136.139 179.393 137.656 179.365H142.483C144.001 179.393 144.994 178.676 145.463 177.241L157.794 141.821C157.932 141.434 157.987 141.076 157.987 140.8C157.987 139.752 157.297 139.228 155.945 139.228H155.918Z" fill="white"/>
<path d="M168.414 154.179C169.656 151.614 171.835 150.345 174.87 150.345C178.401 150.345 180.414 151.614 180.939 154.179H168.414ZM175.339 138.676C169.683 138.676 164.828 140.662 160.801 144.662C156.773 148.662 154.759 153.49 154.759 159.2C154.759 164.966 156.773 169.876 160.828 173.931C164.883 177.986 169.959 180 176.056 180C180.828 180 185.159 178.897 188.994 176.662C189.987 176.083 190.483 175.421 190.483 174.676C190.483 174.317 190.345 173.821 190.097 173.242L188.028 168.193C187.559 167.035 186.87 166.483 185.959 166.483C185.683 166.483 185.27 166.593 184.745 166.786C181.904 167.917 179.173 168.469 176.552 168.469C172.221 168.469 169.463 166.786 168.332 163.448H190.456C192.056 163.448 192.939 162.814 193.132 161.517C193.242 160.828 193.297 159.917 193.297 158.731C193.297 153.6 191.973 149.186 189.297 145.49C185.987 140.938 181.325 138.676 175.366 138.676H175.339Z" fill="white"/>
<path d="M222.759 148.442C223.09 147.586 223.256 146.483 223.256 145.159V141.876C223.311 140.083 222.428 139.2 220.635 139.255H197.325C195.532 139.2 194.649 140.083 194.704 141.876V148.717C194.649 150.511 195.532 151.393 197.325 151.338H207.78L196.69 167.117C195.918 168.221 195.421 169.021 195.201 169.517C194.87 170.345 194.704 171.476 194.704 172.883V176.717C194.649 178.511 195.532 179.393 197.325 179.338H220.635C222.428 179.393 223.311 178.511 223.256 176.717V169.793C223.311 168 222.428 167.117 220.635 167.173H209.932L221.242 150.869C222.042 149.683 222.539 148.883 222.732 148.442H222.759Z" fill="white"/>
<path d="M235.394 157.821C232.387 157.462 230.925 155.779 231.008 152.8L231.532 130.29L233.132 116.966C233.325 115.476 233.849 114.373 234.787 113.655C235.725 112.938 236.911 112.662 238.401 112.855L243.67 113.49C245.159 113.683 246.263 114.207 246.98 115.117C247.697 116.028 247.973 117.214 247.78 118.731L246.18 132.055L241.408 154.069C240.801 156.993 238.98 158.262 236.001 157.904L235.366 157.821H235.394ZM239.118 178.373C237.601 179.559 235.587 180.028 233.049 179.724C230.539 179.421 228.663 178.51 227.449 176.966C226.235 175.421 225.766 173.435 226.07 171.035C226.373 168.552 227.283 166.704 228.828 165.462C230.373 164.221 232.414 163.779 234.925 164.083C237.435 164.386 239.311 165.324 240.497 166.869C241.683 168.414 242.125 170.455 241.849 172.938C241.545 175.393 240.635 177.214 239.118 178.4V178.373Z" fill="white"/>
</g>
<defs>
<clipPath id="clip0_21_175">
<rect width="247.836" height="180" fill="white"/>
</clipPath>
</defs>
</svg>
