<svg width="126" height="92" viewBox="0 0 126 92" fill="none" xmlns="http://www.w3.org/2000/svg">
<g clip-path="url(#clip0_23_244)">
<path d="M67.3892 62.4765C61.7234 59.0855 59.8814 51.7312 63.2724 46.0654L86.2703 7.67523C89.6613 2.0095 97.0156 0.167444 102.681 3.55851C108.347 6.94957 110.189 14.3039 106.798 19.9696L83.8002 58.3598C80.4092 64.0255 73.0549 65.8676 67.3892 62.4765Z" fill="#001D54"/>
<path fill-rule="evenodd" clip-rule="evenodd" d="M67.459 0.544228L53.9505 0.697733C59.5325 1.70249 63.7749 6.58674 63.7749 12.4618C63.7749 19.0625 58.4161 24.4212 51.8154 24.4212C47.7545 24.4212 44.1541 22.3978 42.0051 19.2997L41.1678 17.8903L34.567 6.86584C32.3203 3.1259 28.371 1.04661 24.2962 1.04661C22.2029 1.04661 20.0957 1.59085 18.1699 2.74912C15.2533 4.49349 13.3415 7.29845 12.6437 10.3825C12.6437 10.4104 12.6298 10.4244 12.6298 10.4523C12.0018 13.327 12.4205 16.439 14.0532 19.1602L29.2362 44.5304C29.4177 44.8374 29.5991 45.1165 29.8084 45.3956L36.0463 56.0851C40.8328 64.2767 52.6527 64.3046 57.4812 56.1409L78.7904 20.137C83.9259 11.471 77.6601 0.530273 67.6264 0.530273C67.5706 0.530273 67.5148 0.530273 67.459 0.530273V0.544228Z" fill="#00D7FA"/>
<path d="M63.7192 12.4478C63.7192 19.0486 58.3604 24.4073 51.7597 24.4073C45.159 24.4073 39.8003 19.0486 39.8003 12.4478C39.8003 5.84712 45.159 0.488403 51.7597 0.488403C58.3604 0.488403 63.7192 5.84712 63.7192 12.4478Z" fill="#001D54"/>
<path d="M67.3892 62.4765C61.7234 59.0855 59.8814 51.7312 63.2724 46.0654L86.2703 7.67523C89.6613 2.0095 97.0156 0.167444 102.681 3.55851C108.347 6.94957 110.189 14.3039 106.798 19.9696L83.8002 58.3598C80.4092 64.0255 73.0549 65.8676 67.3892 62.4765V62.4765Z" stroke="white" stroke-width="0.97685" stroke-miterlimit="10"/>
<path d="M67.459 0.544217L53.9505 0.697722C59.5325 1.70248 63.7749 6.58673 63.7749 12.4618C63.7749 19.0625 58.4161 24.4212 51.8154 24.4212C47.7545 24.4212 44.1541 22.3977 42.0051 19.2997L41.1678 17.8903L34.567 6.86583C32.3203 3.12589 28.371 1.0466 24.2962 1.0466C22.2029 1.0466 20.0957 1.59084 18.1699 2.74911C15.2533 4.49348 13.3415 7.29844 12.6437 10.3825C12.6437 10.3964 12.6298 10.4244 12.6298 10.4523C12.0018 13.327 12.4205 16.439 14.0532 19.1602L29.2362 44.5304C29.4177 44.8374 29.5991 45.1165 29.8084 45.3956L36.0602 56.0851C40.8468 64.2767 52.6667 64.3046 57.4951 56.1409L78.8044 20.137C83.9678 11.4152 77.6043 0.418622 67.4729 0.530262L67.459 0.544217Z" stroke="white" stroke-width="0.97685" stroke-miterlimit="10"/>
<path d="M63.7192 12.4478C63.7192 19.0486 58.3604 24.4073 51.7597 24.4073C45.159 24.4073 39.8003 19.0486 39.8003 12.4478C39.8003 5.84712 45.159 0.488403 51.7597 0.488403C58.3604 0.488403 63.7192 5.84712 63.7192 12.4478V12.4478Z" stroke="white" stroke-width="0.97685" stroke-miterlimit="10"/>
<path d="M9.93649 77.9945L8.68054 77.7154C7.92697 77.5479 7.41063 77.3805 7.13153 77.1851C6.86639 76.9897 6.72684 76.7525 6.72684 76.4595C6.72684 76.0269 6.96407 75.7059 7.4525 75.5105C7.94092 75.3012 8.62472 75.2035 9.51784 75.2035C9.95044 75.2035 10.4249 75.2454 10.9552 75.3291C11.4855 75.4128 12.0018 75.5105 12.5182 75.6361C13.0345 75.7617 13.509 75.8873 13.9416 76.0408C14.3742 76.1943 14.6951 76.3339 14.9184 76.4595C15.2673 76.1664 15.5604 75.7896 15.7976 75.3431C16.0209 74.8965 16.1465 74.3662 16.1465 73.7382C16.1465 73.0823 15.9511 72.5241 15.5743 72.0497C15.1975 71.5752 14.6812 71.1845 14.0253 70.8914C13.3834 70.5984 12.6158 70.3751 11.7367 70.2216C10.8575 70.0681 9.92253 69.9983 8.91777 69.9983C7.59205 69.9983 6.37796 70.1518 5.28947 70.4449C4.20098 70.7379 3.25204 71.1566 2.47056 71.7008C1.68908 72.245 1.07506 72.9149 0.642457 73.7243C0.209852 74.5337 -0.0134277 75.4407 -0.0134277 76.4455C-0.0134277 78.2876 0.558727 79.697 1.71699 80.6878C2.8613 81.6786 4.61963 82.4043 6.97803 82.8648L8.19211 83.102C8.94568 83.2416 9.48993 83.409 9.81089 83.6323C10.1319 83.8417 10.2993 84.1487 10.2993 84.5254C10.2993 84.9301 10.076 85.2511 9.62948 85.5023C9.18292 85.7395 8.54099 85.8651 7.70369 85.8651C6.37796 85.8651 5.20574 85.6977 4.18703 85.3627C3.16831 85.0278 2.27519 84.6371 1.49371 84.2045C1.11693 84.4975 0.795962 84.8743 0.516862 85.3209C0.251717 85.7674 0.112167 86.3117 0.112167 86.9676C0.112167 87.6653 0.307537 88.2793 0.698277 88.7957C1.08902 89.312 1.63326 89.7307 2.31706 90.0795C3.00085 90.4145 3.83815 90.6656 4.815 90.8331C5.79185 91.0006 6.83848 91.0703 7.98279 91.0703C10.9831 91.0703 13.2578 90.4842 14.8068 89.326C16.3558 88.1677 17.1233 86.5489 17.1233 84.4975C17.1233 82.8508 16.5791 81.4972 15.4766 80.4645C14.3881 79.4179 12.5321 78.6085 9.93649 78.0085V77.9945Z" fill="#001D54"/>
<path d="M34.7903 70.082H31.2457C30.3386 70.0541 29.8921 70.5006 29.92 71.4077V81.7763C29.92 82.5159 29.613 83.1718 28.985 83.7439C28.4268 84.2463 27.7709 84.4975 27.0173 84.4975C26.2219 84.4975 25.5381 84.2184 24.952 83.6462C24.3659 83.0741 24.0868 82.3903 24.0868 81.5809V71.4217C24.1147 70.5146 23.6681 70.068 22.7611 70.0959H19.2584C18.3513 70.068 17.9047 70.5146 17.9326 71.4217V81.6646C17.9326 84.344 18.6304 86.4652 20.0398 88.0281C21.6307 89.8144 23.9472 90.7075 26.9615 90.7075C28.6082 90.7075 29.9897 90.3725 31.1061 89.7027C31.162 90.2609 31.4829 90.5261 32.097 90.5121H34.8182C35.7253 90.54 36.1718 90.0934 36.1439 89.1864V71.4356C36.1718 70.5285 35.7253 70.082 34.8182 70.1099L34.7903 70.082Z" fill="#001D54"/>
<path d="M50.3223 83.3393C49.499 84.1626 48.4803 84.5673 47.2662 84.5673C46.08 84.5673 45.0752 84.1486 44.2519 83.3253C43.4146 82.488 43.0099 81.4553 43.0099 80.2273C43.0099 78.9993 43.4286 77.9666 44.2519 77.1432C45.0752 76.3059 46.0661 75.9012 47.2383 75.9012C48.4663 75.9012 49.485 76.3059 50.3084 77.1293C51.1457 77.9805 51.5504 79.0132 51.5504 80.2413C51.5504 81.4832 51.1317 82.5159 50.3084 83.3532L50.3223 83.3393ZM56.4486 70.082H53.0994C52.4574 70.0681 52.1086 70.3472 52.0667 70.9333C50.5456 70.1518 48.9547 69.761 47.2941 69.761C44.4054 69.761 41.9354 70.7937 39.8979 72.8591C37.8605 74.9104 36.8418 77.3665 36.8418 80.2273C36.8418 83.0881 37.8605 85.5581 39.8979 87.5955C41.9354 89.6609 44.3915 90.6796 47.2662 90.6796C49.0943 90.6796 50.8387 90.2051 52.4993 89.2701V89.4097C52.5133 90.2191 52.9598 90.5959 53.825 90.554H56.4346C57.3277 90.5819 57.7743 90.1353 57.7603 89.2283V71.3938C57.7883 70.4867 57.3417 70.0401 56.4346 70.0681L56.4486 70.082Z" fill="#001D54"/>
<path d="M78.8742 70.4309H74.7574C73.976 70.4169 73.4875 70.7797 73.2922 71.5194L70.85 79.9203L68.3661 71.5194C68.1567 70.7797 67.6683 70.4169 66.9008 70.4309H62.8259C62.1282 70.4309 61.7793 70.696 61.7793 71.2263C61.7793 71.3659 61.8212 71.5333 61.9049 71.7426L68.1288 89.6609C68.3661 90.3865 68.8684 90.7493 69.636 90.7354H72.0781C72.8456 90.7493 73.348 90.3865 73.5852 89.6609L79.8231 71.7426C79.8929 71.5473 79.9208 71.3659 79.9208 71.2263C79.9208 70.696 79.5719 70.4309 78.8881 70.4309H78.8742Z" fill="#001D54"/>
<path d="M85.1958 77.9944C85.8238 76.6966 86.9262 76.0547 88.4613 76.0547C90.2475 76.0547 91.2662 76.6966 91.5314 77.9944H85.1958ZM88.6985 70.1517C85.8377 70.1517 83.3817 71.1565 81.3442 73.18C79.3068 75.2034 78.2881 77.6456 78.2881 80.5343C78.2881 83.4508 79.3068 85.9348 81.3582 87.9862C83.4096 90.0376 85.9773 91.0563 89.0613 91.0563C91.4756 91.0563 93.6665 90.4981 95.6062 89.3678C96.1086 89.0747 96.3598 88.7398 96.3598 88.363C96.3598 88.1816 96.29 87.9304 96.1644 87.6373L95.1178 85.0836C94.8806 84.4975 94.5317 84.2184 94.0712 84.2184C93.9316 84.2184 93.7223 84.2742 93.4572 84.3719C92.0198 84.944 90.6383 85.2231 89.3125 85.2231C87.1216 85.2231 85.7261 84.3719 85.1539 82.6833H96.3459C97.1553 82.6833 97.6018 82.3624 97.6995 81.7065C97.7553 81.3576 97.7832 80.8971 97.7832 80.297C97.7832 77.7014 97.1134 75.4686 95.7598 73.5986C94.0852 71.296 91.7268 70.1517 88.7125 70.1517H88.6985Z" fill="#001D54"/>
<path d="M112.687 75.0919C112.855 74.6592 112.938 74.101 112.938 73.4312V71.7706C112.966 70.8635 112.52 70.4169 111.613 70.4448H99.8206C98.9135 70.4169 98.467 70.8635 98.4949 71.7706V75.2314C98.467 76.1385 98.9135 76.585 99.8206 76.5571H105.11L99.4996 84.5394C99.1089 85.0976 98.8577 85.5023 98.7461 85.7535C98.5786 86.1721 98.4949 86.7443 98.4949 87.456V89.3957C98.467 90.3028 98.9135 90.7494 99.8206 90.7215H111.613C112.52 90.7494 112.966 90.3028 112.938 89.3957V85.893C112.966 84.9859 112.52 84.5394 111.613 84.5673H106.198L111.92 76.3199C112.324 75.7198 112.575 75.3151 112.673 75.0919H112.687Z" fill="#001D54"/>
<path d="M119.079 79.8365C117.557 79.6551 116.818 78.8038 116.86 77.2967L117.125 65.9094L117.934 59.1692C118.032 58.4156 118.297 57.8574 118.772 57.4946C119.246 57.1317 119.846 56.9922 120.6 57.0899L123.265 57.4108C124.019 57.5085 124.577 57.7737 124.94 58.2342C125.302 58.6947 125.442 59.2948 125.344 60.0623L124.535 66.8025L122.121 77.9386C121.814 79.4179 120.893 80.0598 119.386 79.8784L119.065 79.8365H119.079ZM120.962 90.233C120.195 90.8331 119.176 91.0703 117.892 90.9168C116.622 90.7633 115.674 90.3028 115.059 89.5213C114.445 88.7398 114.208 87.735 114.362 86.521C114.515 85.265 114.976 84.33 115.757 83.702C116.539 83.0741 117.571 82.8508 118.841 83.0043C120.111 83.1578 121.06 83.6323 121.66 84.4138C122.26 85.1952 122.484 86.2279 122.344 87.4839C122.19 88.7258 121.73 89.6469 120.962 90.2469V90.233Z" fill="#001D54"/>
</g>
<defs>
<clipPath id="clip0_23_244">
<rect width="125.373" height="91.0564" fill="white"/>
</clipPath>
</defs>
</svg>
